<svg xmlns="http://www.w3.org/2000/svg" version="1.1" xmlns:xlink="http://www.w3.org/1999/xlink" xmlns:svgjs="http://svgjs.dev/svgjs" width="1000" height="1000" viewBox="0 0 1000 1000"><rect width="1000" height="1000" fill="#001f3f"></rect><g transform="matrix(0.7,0,0,0.7,150,150)"><svg viewBox="0 0 280 280" data-background-color="#001f3f" preserveAspectRatio="xMidYMid meet" height="1000" width="1000" xmlns="http://www.w3.org/2000/svg" xmlns:xlink="http://www.w3.org/1999/xlink"><g id="tight-bounds" transform="matrix(1,0,0,1,0,0)"><svg viewBox="0 0 280 280" height="280" width="280"><rect width="280" height="280" fill="url(#e3894325-c879-4196-a0d2-c90bd60c68ce)" mask="url(&quot;#0c6ba794-7a6c-4b48-b30c-b2f5e1239633&quot;)" data-fill-palette-color="primary"></rect><g><svg viewBox="0 0 280 280" height="280" width="280"><g><svg viewBox="0 0 280 280" height="280" width="280"><g id="textblocktransform"><svg viewBox="0 0 280 280" height="280" width="280" id="textblock"><g><svg viewBox="0 0 280 280" height="280" width="280"><g transform="matrix(1,0,0,1,57.50420886156945,57.50420886156945)"><svg viewBox="0 0 164.9915822768611 164.9915822768611" height="164.9915822768611" width="164.9915822768611"><g><circle r="82" cx="82.49579113843055" cy="82.49579113843055" fill="#2f93e7" data-fill-palette-color="accent"></circle><svg xmlns="http://www.w3.org/2000/svg" xmlns:xlink="http://www.w3.org/1999/xlink" version="1.1" x="24.74873734152917" y="24.748737341529164" viewBox="4.967 5 90.001 90" enable-background="new 0 0 100 100" xml:space="preserve" height="115.49410759380275" width="115.49410759380275" class="icon-wg-0" data-fill-palette-color="quaternary" id="wg-0"><g fill="#ffffff" data-fill-palette-color="quaternary"><polygon points="81.588,69.219 76.042,77.733 49.901,5 30.566,58.797 24.486,43.546 4.967,95 17.555,95 45,95 64.794,95 82.249,95    94.968,95  " fill="#ffffff" data-fill-palette-color="quaternary"></polygon></g></svg></g></svg></g><g></g></svg></g></svg></g></svg></g><g></g></svg></g><defs></defs><mask id="0c6ba794-7a6c-4b48-b30c-b2f5e1239633"><g id="SvgjsG1108"><svg viewBox="0 0 280 280" height="280" width="280"><g><svg viewBox="0 0 280 280" height="280" width="280"><g><svg viewBox="0 0 280 280" height="280" width="280"><g id="SvgjsG1107"><svg viewBox="0 0 280 280" height="280" width="280" id="SvgjsSvg1106"><g><svg viewBox="0 0 280 280" height="280" width="280"><g transform="matrix(1,0,0,1,57.50420886156945,57.50420886156945)"><svg viewBox="0 0 164.9915822768611 164.9915822768611" height="164.9915822768611" width="164.9915822768611"><g><svg xmlns="http://www.w3.org/2000/svg" xmlns:xlink="http://www.w3.org/1999/xlink" version="1.1" x="24.74873734152917" y="24.748737341529164" viewBox="4.967 5 90.001 90" enable-background="new 0 0 100 100" xml:space="preserve" height="115.49410759380275" width="115.49410759380275" class="icon-wg-0" data-fill-palette-color="quaternary" id="SvgjsSvg1105"></svg></g></svg></g><g><path d="M9.44 182.024L11.683 181.543C12.275 182.562 12.85 183.186 13.409 183.412 13.975 183.637 14.804 183.557 15.897 183.173V183.173L31.649 177.678C32.459 177.393 32.978 177.101 33.204 176.803 33.437 176.502 33.462 176.091 33.279 175.57V175.57C33.18 175.288 33.071 175.019 32.953 174.764 32.838 174.515 32.765 174.35 32.737 174.269V174.269L32.872 174.052 34.978 173.66 35.298 174.691 36.499 178.258C36.811 179.144 37.185 180.138 37.621 181.24 38.052 182.344 38.358 183.115 38.54 183.552V183.552C39.593 186.547 39.73 188.993 38.95 190.89 38.171 192.787 36.673 194.125 34.456 194.904V194.904C32.974 195.425 31.412 195.498 29.77 195.123 28.137 194.751 26.668 194.005 25.364 192.883 24.066 191.759 23.142 190.415 22.592 188.852V188.852L21.426 185.536 17.972 186.698C16.854 187.091 16.055 187.417 15.576 187.678 15.093 187.932 14.805 188.217 14.712 188.532 14.616 188.841 14.659 189.256 14.842 189.777V189.777C14.988 190.191 15.14 190.582 15.297 190.95 15.457 191.325 15.572 191.57 15.641 191.687V191.687L15.473 191.841 13.247 192.222C13.161 191.899 12.988 191.325 12.726 190.5 12.462 189.668 12.189 188.851 11.906 188.047V188.047C11.566 187.08 11.089 185.844 10.475 184.338 9.853 182.828 9.508 182.057 9.44 182.024ZM25.071 188.679C26.581 191.309 28.991 192.042 32.3 190.879V190.879C34.146 190.23 35.312 189.22 35.797 187.85 36.282 186.48 36.121 184.649 35.316 182.357V182.357C35.161 181.918 35.033 181.663 34.931 181.593 34.837 181.527 34.641 181.533 34.344 181.609V181.609C31.239 182.432 27.878 183.438 24.26 184.625V184.625ZM47.187 244.136C46.66 243.572 46.374 242.773 46.329 241.741 46.289 240.703 46.504 239.528 46.972 238.216V238.216L49.866 230.022 47.665 227.665 43.576 231.362C42.831 232.057 42.344 232.608 42.113 233.014 41.888 233.416 41.856 233.806 42.017 234.183 42.183 234.556 42.574 235.097 43.191 235.806V235.806L43.129 235.973 41.33 237.148C41.072 236.824 40.581 236.254 39.855 235.438 39.129 234.622 38.399 233.82 37.663 233.032V233.032C37.063 232.39 36.419 231.73 35.731 231.051 35.034 230.373 34.582 229.943 34.376 229.762V229.762L36.292 228.478C37.244 229.292 38.017 229.695 38.61 229.687 39.209 229.675 39.941 229.264 40.807 228.456V228.456L53.085 217.043C53.712 216.457 54.06 215.99 54.129 215.644 54.202 215.294 54.05 214.916 53.673 214.513V214.513C53.468 214.294 53.261 214.091 53.051 213.905 52.845 213.724 52.712 213.602 52.653 213.538V213.538L52.69 213.285 54.491 212.054C54.737 212.317 55.174 212.814 55.804 213.547 56.428 214.284 57.061 214.996 57.702 215.681V215.681C58.397 216.426 59.152 217.2 59.967 218.005 60.778 218.815 61.345 219.373 61.669 219.681V219.681C63.591 221.738 64.66 223.75 64.875 225.717 65.09 227.693 64.422 229.405 62.87 230.854V230.854C61.683 231.963 60.234 232.615 58.523 232.811 56.821 233.007 55.006 232.722 53.077 231.954V231.954L51.061 239.493C50.662 240.968 50.521 242.152 50.636 243.046 50.747 243.935 51.152 244.754 51.852 245.503V245.503L51.784 245.854 50.316 246.828ZM52.295 228.996C52.936 229.272 53.524 229.488 54.06 229.643 54.606 229.798 55.369 229.796 56.349 229.636 57.335 229.472 58.301 228.947 59.25 228.061V228.061C61.706 225.767 61.351 222.924 58.185 219.534V219.534C57.998 219.334 57.827 219.239 57.672 219.248 57.516 219.266 57.285 219.395 56.98 219.634V219.634C54.049 222.034 51.668 224.072 49.835 225.748V225.748ZM88.204 269.788C86.066 268.899 84.393 267.626 83.185 265.971 81.972 264.313 81.295 262.395 81.156 260.217 81.016 258.04 81.439 255.765 82.426 253.393V253.393C83.487 250.842 84.981 248.775 86.909 247.191 88.845 245.603 91.001 244.622 93.377 244.247 95.757 243.882 98.145 244.198 100.542 245.194V245.194C102.736 246.107 104.456 247.396 105.703 249.06 106.953 250.734 107.66 252.649 107.822 254.807 107.981 256.972 107.569 259.237 106.585 261.603V261.603C105.514 264.178 104.005 266.264 102.057 267.862 100.112 269.453 97.921 270.423 95.483 270.772 93.052 271.123 90.626 270.795 88.204 269.788ZM90.361 267.723C91.793 268.318 93.2 268.463 94.581 268.158 95.964 267.847 97.243 267.121 98.417 265.98 99.594 264.848 100.565 263.363 101.329 261.525V261.525C102.242 259.331 102.721 257.296 102.766 255.419 102.818 253.544 102.443 251.932 101.642 250.583 100.841 249.233 99.678 248.241 98.154 247.607V247.607C96.753 247.025 95.374 246.891 94.017 247.206 92.658 247.528 91.405 248.253 90.257 249.384 89.113 250.522 88.159 252.011 87.395 253.848V253.848C86.485 256.036 85.996 258.068 85.93 259.943 85.872 261.815 86.22 263.423 86.973 264.767 87.732 266.114 88.861 267.099 90.361 267.723ZM137.752 280L138.013 277.794C139.333 277.64 140.259 277.438 140.791 277.188 141.322 276.938 141.669 276.515 141.83 275.917 141.991 275.319 142.049 274.315 142.005 272.905V272.905L141.463 255.531C139.449 255.647 138.072 255.82 137.333 256.05 136.595 256.279 136.093 256.724 135.827 257.385 135.554 258.04 135.336 259.252 135.171 261.022V261.022L132.573 261.313C132.769 258.849 132.88 256.195 132.904 253.351V253.351L133.312 252.969 137.048 253.302 149.911 252.9 153.709 252.332 154.13 252.688C154.333 255.579 154.593 258.151 154.91 260.405V260.405L152.312 260.696C151.975 258.855 151.66 257.61 151.366 256.96 151.066 256.303 150.57 255.883 149.879 255.698 149.18 255.513 147.892 255.41 146.013 255.389V255.389C145.929 257.183 145.888 260.028 145.89 263.923 145.885 267.813 145.932 271.33 146.03 274.477V274.477C146.062 275.502 146.264 276.221 146.637 276.636 147.009 277.05 147.608 277.245 148.433 277.219V277.219C149.178 277.196 149.922 277.133 150.665 277.03V277.03L150.841 277.224 150.534 279.561C147.883 279.53 145.689 279.542 143.952 279.597V279.597C142.023 279.657 139.956 279.791 137.752 280ZM187.547 271.873L186.936 269.708C188.018 268.994 188.667 268.336 188.881 267.731 189.092 267.121 188.98 266.279 188.544 265.206V265.206L182.281 249.7C181.947 248.88 181.629 248.37 181.325 248.17 181.018 247.964 180.584 247.975 180.023 248.204V248.204L178.555 248.887 178.354 248.71 177.84 246.677 180.426 245.669C180.999 245.471 181.786 245.17 182.785 244.763V244.763C183.469 244.485 185.048 243.721 187.521 242.471V242.471L188.17 244.621C187.205 245.164 186.601 245.658 186.357 246.102 186.118 246.537 186.131 247.117 186.397 247.843V247.843C187.357 250.556 188.421 253.501 189.59 256.675 190.757 259.844 191.689 262.285 192.386 263.999V263.999C192.812 265.047 193.2 265.702 193.55 265.962 193.894 266.224 194.383 266.226 195.019 265.968V265.968C195.432 265.8 196.045 265.507 196.86 265.09V265.09L197.05 265.239 197.547 267.44C197.06 267.639 196.669 267.783 196.375 267.874V267.874L192.202 269.485C190.747 270.076 189.195 270.873 187.547 271.873ZM235.534 240.571C233.72 242.314 231.783 243.446 229.725 243.965 227.667 244.493 225.598 244.405 223.517 243.7 221.445 242.995 219.501 241.697 217.684 239.806V239.806C215.733 237.776 214.431 235.542 213.779 233.105 213.126 230.677 213.164 228.258 213.895 225.848 214.625 223.448 216.005 221.272 218.035 219.322V219.322C218.775 218.611 219.6 217.924 220.513 217.26 221.416 216.595 222.201 216.048 222.868 215.619 223.531 215.194 223.96 214.925 224.156 214.811V214.811L224.57 214.94C224.637 215.096 224.858 215.465 225.232 216.047 225.602 216.634 226.103 217.366 226.735 218.245 227.372 219.128 228.081 220.035 228.863 220.963V220.963L226.913 223.128C226.84 223.004 226.68 222.794 226.432 222.497 226.183 222.2 225.888 221.874 225.547 221.519V221.519C223.845 219.748 221.692 220.115 219.086 222.619V222.619C217.271 224.362 216.464 226.361 216.664 228.615 216.859 230.874 218.048 233.138 220.229 235.408V235.408C221.857 237.102 223.518 238.331 225.211 239.094 226.905 239.858 228.523 240.14 230.067 239.94 231.615 239.735 232.996 239.049 234.21 237.883V237.883C235.444 236.697 236.077 235.397 236.11 233.98 236.152 232.564 235.596 230.938 234.442 229.103V229.103L236.356 226.917C236.603 227.289 237.168 228.103 238.052 229.359 238.931 230.619 239.79 231.763 240.631 232.792V232.792L240.713 233.295C240.732 233.314 240.523 233.736 240.088 234.561 239.648 235.381 239.045 236.329 238.28 237.406 237.524 238.483 236.609 239.538 235.534 240.571ZM242.199 192.492C241.376 192.165 240.787 192.042 240.433 192.124 240.072 192.202 239.78 192.523 239.556 193.086V193.086C239.453 193.346 239.366 193.602 239.295 193.853 239.224 194.104 239.173 194.27 239.141 194.35V194.35L238.859 194.41 237.013 193.323C237.156 192.964 237.433 192.319 237.846 191.387 238.268 190.452 238.647 189.56 238.983 188.712V188.712C239.256 188.026 239.549 187.15 239.864 186.087 240.179 185.023 240.39 184.319 240.498 183.975V183.975L242.514 184.958C242.318 185.976 242.306 186.719 242.478 187.188 242.649 187.658 243.089 188.047 243.797 188.357V188.357L259.514 195.09C260.532 195.522 261.263 195.701 261.707 195.627 262.155 195.547 262.505 195.188 262.758 194.551V194.551C262.922 194.136 263.05 193.779 263.14 193.478 263.233 193.171 263.289 192.961 263.306 192.846V192.846L263.545 192.812 265.478 193.976C265.325 194.36 265.032 195.045 264.597 196.033 264.162 197.02 263.746 198.015 263.348 199.017V199.017C262.921 200.094 262.536 201.098 262.195 202.029 261.854 202.961 261.622 203.582 261.499 203.891V203.891L259.618 202.704C259.83 201.864 259.922 201.217 259.895 200.762 259.868 200.307 259.687 199.924 259.352 199.612 259.011 199.298 258.47 198.993 257.728 198.699V198.699ZM251.77 190.813L247.562 181.795C247.11 180.749 246.603 180.114 246.04 179.891V179.891C245.706 179.758 245.372 179.833 245.038 180.116 244.704 180.399 244.353 180.929 243.987 181.708V181.708L243.748 181.742 241.912 180.658C242.069 180.334 242.382 179.671 242.852 178.668 243.325 177.675 243.684 176.868 243.93 176.25V176.25C244.257 175.427 244.548 174.63 244.804 173.858 245.067 173.088 245.242 172.556 245.33 172.262V172.262L245.714 172.189 247.454 173.191C247.395 174.005 247.493 174.825 247.746 175.648 247.996 176.478 248.521 177.718 249.32 179.367V179.367L252.904 186.848 263.359 184.187C264.911 183.794 266.064 183.353 266.817 182.864 267.575 182.377 268.14 181.703 268.511 180.84V180.84L268.835 180.7 270.38 181.625C270.303 181.981 270.127 182.67 269.85 183.692 269.582 184.71 269.401 185.336 269.308 185.571V185.571C268.748 186.982 267.095 187.973 264.347 188.543V188.543L252.437 191.163Z" fill="white"></path><path d="M28.45 112.498L26.362 111.453C26.544 110.261 26.482 109.396 26.178 108.858 25.874 108.32 25.167 107.854 24.056 107.462V107.462L8.046 101.765C7.224 101.474 6.628 101.373 6.258 101.461 5.88 101.553 5.597 101.863 5.411 102.39V102.39C5.307 102.685 5.221 102.969 5.153 103.241 5.085 103.514 5.036 103.691 5.008 103.772V103.772L4.753 103.863 2.843 102.828 3.246 101.805 4.561 98.204C4.88 97.3 5.221 96.274 5.585 95.124 5.951 93.969 6.198 93.159 6.326 92.697V92.697C7.401 89.653 8.858 87.626 10.697 86.617 12.527 85.612 14.569 85.507 16.822 86.303V86.303C18.329 86.835 19.614 87.772 20.678 89.115 21.737 90.456 22.424 91.987 22.741 93.709 23.055 95.436 22.932 97.094 22.371 98.682V98.682L21.177 102.062 24.666 103.336C25.802 103.737 26.645 103.989 27.195 104.092 27.736 104.198 28.145 104.159 28.422 103.975 28.692 103.788 28.922 103.428 29.11 102.894V102.894C29.261 102.468 29.392 102.058 29.502 101.667 29.612 101.275 29.675 101.008 29.69 100.865V100.865L29.927 100.853 31.947 101.969C31.802 102.278 31.57 102.845 31.25 103.671 30.93 104.497 30.625 105.321 30.335 106.143V106.143C29.989 107.122 29.58 108.411 29.107 110.009 28.63 111.598 28.411 112.428 28.45 112.498ZM20.291 97.227C20.774 94.179 19.331 92.06 15.961 90.869V90.869C14.078 90.204 12.509 90.26 11.253 91.038 9.995 91.822 8.955 93.378 8.132 95.706V95.706C7.973 96.158 7.908 96.442 7.937 96.559 7.973 96.677 8.131 96.8 8.41 96.927V96.927C11.401 98.252 14.713 99.598 18.345 100.966V100.966ZM62.622 57.732C62.081 58.31 61.284 58.654 60.233 58.765 59.187 58.879 57.979 58.743 56.61 58.355V58.355L48.09 55.974 45.839 58.379 49.881 62.272C50.639 62.981 51.231 63.44 51.657 63.647 52.078 63.85 52.474 63.855 52.844 63.664 53.215 63.473 53.74 63.039 54.419 62.362V62.362L54.597 62.419 55.905 64.163C55.599 64.451 55.055 64.99 54.271 65.778 53.492 66.572 52.729 67.367 51.983 68.164V68.164C51.369 68.82 50.743 69.524 50.104 70.275 49.46 71.021 49.052 71.506 48.88 71.728V71.728L47.448 69.868C48.211 68.849 48.565 68.037 48.512 67.431 48.464 66.83 47.998 66.116 47.113 65.288V65.288L34.675 53.593C34.039 52.997 33.541 52.672 33.181 52.618 32.822 52.573 32.451 52.755 32.069 53.163V53.163C31.855 53.392 31.662 53.617 31.491 53.839 31.319 54.062 31.204 54.204 31.145 54.268V54.268L30.876 54.248 29.511 52.506C29.761 52.239 30.238 51.759 30.94 51.068 31.638 50.38 32.314 49.687 32.969 48.987V48.987C33.678 48.229 34.419 47.409 35.19 46.526 35.957 45.648 36.481 45.035 36.761 44.687V44.687C38.721 42.592 40.696 41.369 42.686 41.016 44.676 40.662 46.46 41.225 48.039 42.703V42.703C49.25 43.836 50.012 45.261 50.328 46.978 50.64 48.701 50.471 50.567 49.821 52.576V52.576L57.628 54.111C59.155 54.419 60.367 54.482 61.265 54.302 62.163 54.121 62.967 53.652 63.677 52.894V52.894L64.039 52.945 65.131 54.364ZM46.881 53.57C47.113 52.903 47.29 52.29 47.413 51.73 47.536 51.17 47.48 50.397 47.244 49.412 47.014 48.421 46.417 47.475 45.455 46.575V46.575C42.952 44.232 40.086 44.786 36.857 48.237V48.237C36.666 48.441 36.583 48.623 36.607 48.782 36.631 48.941 36.777 49.165 37.046 49.453V49.453C39.682 52.266 41.914 54.547 43.743 56.295V56.295ZM96.178 36.966C93.995 37.872 91.873 38.165 89.809 37.847 87.74 37.531 85.872 36.641 84.205 35.178 82.53 33.712 81.191 31.77 80.188 29.354V29.354C79.112 26.76 78.693 24.195 78.931 21.661 79.175 19.124 80.018 16.864 81.458 14.883 82.905 12.899 84.849 11.401 87.289 10.388V10.388C89.521 9.462 91.689 9.146 93.792 9.44 95.893 9.743 97.78 10.61 99.455 12.041 101.132 13.478 102.472 15.405 103.475 17.821V17.821C104.562 20.44 104.979 23.027 104.728 25.581 104.482 28.133 103.613 30.414 102.12 32.425 100.624 34.429 98.643 35.943 96.178 36.966ZM96.235 33.926C97.692 33.322 98.805 32.409 99.575 31.189 100.347 29.975 100.746 28.534 100.774 26.865 100.794 25.192 100.416 23.421 99.64 21.552V21.552C98.714 19.321 97.59 17.514 96.266 16.132 94.95 14.747 93.517 13.857 91.97 13.461 90.424 13.072 88.871 13.201 87.31 13.849V13.849C85.883 14.441 84.796 15.339 84.049 16.542 83.305 17.752 82.931 19.179 82.929 20.823 82.92 22.47 83.304 24.228 84.079 26.096V26.096C85.005 28.328 86.124 30.138 87.434 31.525 88.742 32.921 90.152 33.828 91.665 34.244 93.181 34.667 94.705 34.561 96.235 33.926ZM137.081 27.758L137.491 25.534C138.845 25.464 139.799 25.317 140.352 25.095 140.912 24.88 141.291 24.472 141.49 23.873 141.689 23.273 141.811 22.258 141.856 20.828V20.828L142.419 3.125C140.368 3.113 138.96 3.202 138.195 3.39 137.43 3.579 136.891 3.998 136.577 4.647 136.257 5.297 135.958 6.516 135.682 8.305V8.305L133.02 8.44C133.379 5.948 133.661 3.256 133.866 0.366V0.366L134.297 0 138.075 0.58 151.177 0.996 155.074 0.661 155.481 1.053C155.5 4.004 155.6 6.634 155.779 8.944V8.944L153.118 9.079C152.898 7.187 152.66 5.898 152.402 5.21 152.137 4.529 151.659 4.071 150.967 3.836 150.268 3.608 148.966 3.42 147.059 3.273V3.273C146.862 5.091 146.637 7.981 146.384 11.942 146.132 15.896 145.955 19.476 145.853 22.683V22.683C145.82 23.721 145.979 24.462 146.332 24.906 146.683 25.356 147.279 25.595 148.117 25.622V25.622C148.875 25.646 149.635 25.627 150.396 25.564V25.564L150.559 25.779 150.105 28.132C147.414 27.934 145.184 27.806 143.414 27.75V27.75C141.445 27.687 139.334 27.69 137.081 27.758ZM179.701 34.82L180.787 32.804C182.079 33.055 183.021 33.035 183.613 32.744 184.197 32.456 184.711 31.763 185.156 30.665V30.665L191.595 14.896C191.932 14.064 192.064 13.463 191.991 13.096 191.908 12.732 191.58 12.434 191.007 12.201V12.201L189.459 11.66 189.433 11.38 190.493 9.537 193.096 10.635C193.66 10.893 194.451 11.228 195.468 11.641V11.641C196.172 11.926 197.866 12.494 200.551 13.346V13.346L199.502 15.377C198.407 15.084 197.617 15.011 197.133 15.16 196.647 15.315 196.243 15.751 195.924 16.469V16.469C194.696 19.124 193.382 22.028 191.981 25.18 190.583 28.327 189.53 30.773 188.822 32.518V32.518C188.389 33.585 188.207 34.337 188.274 34.774 188.335 35.208 188.692 35.558 189.346 35.823V35.823C189.765 35.993 190.42 36.212 191.31 36.479V36.479L191.348 36.732 190.141 38.698C189.641 38.496 189.256 38.322 188.984 38.176V38.176L184.795 36.391C183.309 35.788 181.611 35.264 179.701 34.82ZM221.196 61.936C219.349 60.169 218.116 58.247 217.496 56.17 216.871 54.099 216.875 51.992 217.506 49.85 218.136 47.708 219.375 45.673 221.22 43.745V43.745C223.204 41.673 225.42 40.252 227.87 39.482 230.311 38.713 232.771 38.65 235.252 39.292 237.733 39.934 240.01 41.247 242.082 43.231V43.231C242.833 43.949 243.566 44.756 244.282 45.654 244.999 46.552 245.588 47.327 246.049 47.981 246.511 48.644 246.803 49.071 246.925 49.261V49.261L246.814 49.68C246.66 49.763 246.294 50.007 245.714 50.41 245.139 50.809 244.417 51.352 243.547 52.04 242.672 52.723 241.778 53.484 240.864 54.323V54.323L238.584 52.431C238.7 52.348 238.906 52.172 239.201 51.902 239.497 51.641 239.819 51.328 240.169 50.963V50.963C241.899 49.155 241.433 46.976 238.769 44.426V44.426C236.922 42.659 234.853 41.928 232.563 42.232 230.272 42.527 228.02 43.831 225.806 46.144V46.144C224.154 47.871 222.975 49.612 222.27 51.37 221.56 53.122 221.34 54.782 221.61 56.348 221.889 57.915 222.646 59.289 223.882 60.472V60.472C225.142 61.678 226.492 62.269 227.932 62.247 229.372 62.225 231.003 61.589 232.826 60.339V60.339L235.134 62.202C234.763 62.464 233.955 63.073 232.709 64.028 231.469 64.978 230.34 65.902 229.324 66.8V66.8L228.825 66.902C228.807 66.922 228.372 66.726 227.52 66.317 226.659 65.907 225.665 65.338 224.538 64.61 223.406 63.877 222.292 62.985 221.196 61.936ZM265.304 85.736C266.139 85.402 266.663 85.082 266.877 84.774 267.082 84.463 267.07 84.02 266.84 83.445V83.445C266.737 83.185 266.623 82.937 266.499 82.699 266.376 82.462 266.298 82.303 266.266 82.223V82.223L266.435 81.972 268.554 81.491C268.7 81.856 268.947 82.528 269.295 83.507 269.646 84.492 269.993 85.414 270.336 86.273V86.273C270.617 86.978 271.01 87.835 271.514 88.845 272.024 89.853 272.359 90.522 272.52 90.852V90.852L270.343 91.539C269.778 90.646 269.268 90.087 268.812 89.86 268.356 89.634 267.757 89.651 267.016 89.911V89.911L250.676 95.945C249.622 96.338 248.956 96.718 248.681 97.087 248.402 97.449 248.394 97.957 248.656 98.612V98.612C248.824 99.033 248.979 99.386 249.123 99.673 249.268 99.966 249.378 100.159 249.451 100.252V100.252L249.291 100.444 247.037 100.937C246.881 100.547 246.621 99.834 246.257 98.797 245.889 97.768 245.501 96.744 245.094 95.724V95.724C244.654 94.624 244.234 93.609 243.834 92.68 243.434 91.75 243.172 91.131 243.049 90.822V90.822L245.272 90.385C245.701 91.153 246.085 91.694 246.426 92.009 246.764 92.333 247.167 92.491 247.637 92.483 248.1 92.477 248.712 92.322 249.472 92.018V92.018ZM259.396 93.687L268.83 97.412C269.891 97.862 270.709 97.972 271.284 97.743V97.743C271.624 97.607 271.817 97.318 271.863 96.877 271.915 96.433 271.804 95.797 271.53 94.967V94.967L271.686 94.765 273.805 94.284C273.916 94.634 274.146 95.345 274.496 96.416 274.851 97.486 275.154 98.332 275.403 98.957V98.957C275.737 99.791 276.076 100.587 276.422 101.345 276.768 102.103 277.013 102.618 277.157 102.89V102.89L276.92 103.21 274.931 103.693C274.402 103.052 273.757 102.514 272.996 102.08 272.226 101.642 270.966 101.091 269.218 100.428V100.428L261.343 97.403 255.466 106.697C254.598 108.076 254.055 109.21 253.837 110.1 253.613 110.992 253.665 111.885 253.994 112.779V112.779L253.858 113.113 252.06 113.509C251.874 113.189 251.525 112.557 251.013 111.615 250.498 110.667 250.193 110.076 250.1 109.841V109.841C249.527 108.407 250.057 106.514 251.691 104.163V104.163L258.658 93.885Z" fill="white"></path><path d="M10.861 143.933C10.861 142.196 12.269 140.787 14.006 140.787 15.743 140.787 17.151 142.196 17.151 143.933 17.151 145.67 15.743 147.078 14.006 147.078 12.269 147.078 10.861 145.67 10.861 143.933ZM262.463 143.933C262.463 142.196 263.871 140.787 265.608 140.787 267.345 140.787 268.754 142.196 268.754 143.933 268.754 145.67 267.345 147.078 265.608 147.078 263.871 147.078 262.463 145.67 262.463 143.933Z" fill="white"></path></g></svg></g></svg></g></svg></g><g></g></svg></g><defs><mask></mask></defs></svg></g></mask><linearGradient x1="0" x2="1" y1="0.5" y2="0.5" id="e3894325-c879-4196-a0d2-c90bd60c68ce"><stop stop-color="#ffa62e" offset="0"></stop><stop stop-color="#f71b3d" offset="1"></stop></linearGradient></svg><rect width="280" height="280" fill="none" stroke="none" visibility="hidden"></rect></g></svg></g></svg>